<?xml version="1.0" encoding="UTF-8" standalone="no"?>
<svg
   version="1.1"
   id="svg1"
   width="3000"
   height="3000"
   viewBox="1950 950 2200 2200"
   xmlns="http://www.w3.org/2000/svg">
  <defs id="defs1">
    <linearGradient
       x1="0%"
       y1="0%"
       x2="100%"
       y2="100%"
       id="logoGradient">
      <stop
         style="stop-opacity:1;stop-color:#FFB74D"
         offset="0%" />
      <stop
         style="stop-opacity:1;stop-color:#FF8C6B"
         offset="50%" />
      <stop
         style="stop-opacity:1;stop-color:#BA5AD3"
         offset="100%" />
    </linearGradient>
  </defs>
  <g id="g1">
    <path
       id="path2"
       d="m 25902.9,20249.9 c -42,0 -84.3,-0.4 -126.8,-1.3 -680.6,-14.5 -1424.9,-138 -2136.1,-389.2 -1422.4,-502.5 -2717.5,-1570.7 -2878.3,-3357.5 -86.8,-963.9 215.6,-1797.2 676.9,-2488.3 -332.3,-394.7 -669.1,-775.3 -1005.1,-1132.1 -349.2,-370.7 -696.5,-713.2 -1037,-1024.2 -10.6,3.4 -25.4,7.6 -36,11 -711.8,229.2 -1288.4,405.6 -1715.3,429.1 -1133.7,62.6 -1896.2,-520.6 -2117.6,-1178.4 -110.7,-328.9 -84.5,-689.2 121.3,-961.8 205.8,-272.49 573.7,-424.84 1037.1,-405.56 590.8,24.57 1234.8,345.16 1927.2,840.46 289,206.8 595.6,454.3 897.4,719.7 648.7,-211.7 1355.3,-445.7 2140.2,-671 1782.2,-511.7 3765.1,-912.07 5329.8,-395.8 1616.7,533.4 2486.2,1640.8 2552.4,2763.1 66.2,1122.4 -688.2,2213.7 -2103.9,2665.3 l -145.6,-457.4 c 1254.7,-400.3 1823.1,-1284.2 1770.3,-2179.5 -52.8,-895.3 -743.9,-1847.6 -2223.9,-2335.9 -1374.6,-453.5 -3294.1,-102 -5046.7,401.2 -676.4,194.2 -1274,390.6 -1863.4,583.7 288.5,272 571.5,557 863.1,866.5 320.6,340.5 638.5,696.5 950.7,1063.4 250.5,-307.6 527.3,-581.3 804.6,-819.4 963,-827 1959.5,-1258.9 1959.5,-1258.9 74.2,-32.3 159.7,-25 227.3,19.4 67.7,44.3 108.4,119.8 108.4,200.7 v 1273.1 1491.3 c 2648.8,1065.3 3748.9,2193.3 3977.7,3229.9 118.1,534.8 -15.3,1028.4 -271,1410.4 -255.6,382.1 -626.7,661.7 -1011,819.2 -427.2,175.2 -996,269.7 -1626.2,268.9 z m 9.1,-491.8 c 583.8,0 1096.2,-81.7 1435.2,-220.7 297.8,-122.1 599.4,-351.2 794.4,-642.5 194.9,-291.4 290.1,-636.1 201,-1039.7 -168.6,-763.8 -1067.7,-1799.9 -3509.2,-2814.7 v 2952.3 c 0,107.8 -72,202.4 -175.9,231.2 -103.8,28.7 -214.1,-15.3 -269.7,-107.7 -720.1,-1196.9 -1645.9,-2510.5 -2628.8,-3716.6 -366.1,589.5 -589.9,1277.1 -519.5,2058.8 142,1578 1248.4,2484.8 2560.3,2948.2 696.9,246.2 1450.5,351.4 2112.2,351.4 z m -1558.6,-2602 v -5004.9 c -327.2,165.4 -861.3,458.6 -1502.5,1009.2 -283.8,243.7 -561.2,520.4 -804.2,829.4 837.7,1016.3 1626.4,2101.9 2306.7,3166.3 z m -6910,-5334 c 56.7,0.6 115.2,-0.5 175.2,-3.9 255.3,-14.1 811.7,-163.1 1359.3,-331.8 -205,-171.5 -449.3,-364.9 -644.2,-504.3 -654.4,-468.2 -1245,-733.4 -1667.6,-751 -354.7,-14.7 -538.5,88.6 -634.1,215.2 -95.6,126.7 -120.6,308.8 -49.7,519.5 133,395.1 610.5,845.2 1461.1,856.3"
       style="fill:url(#logoGradient);fill-opacity:1;fill-rule:nonzero;stroke:none"
       transform="matrix(0.13333333,0,0,-0.13333333,0,4000)" />
  </g>
</svg>
